<svg id="Camada_1" data-name="Camada 1" xmlns="http://www.w3.org/2000/svg" viewBox="0 0 365.13 67.58"><defs><style>.cls-2{fill:none}.cls-3{fill:#fff}.cls-4{fill:#fd0143}.cls-6,.cls-7,.cls-9{letter-spacing:.1em}</style></defs><g id="logo" style="opacity:.8"><path class="cls-2" d="M22.39 24a8.64 8.64 0 0 0-1.59-2.73 7.12 7.12 0 0 0-2.38-1.78 7 7 0 0 0-3-.63 6.71 6.71 0 0 0-3 .65 7.38 7.38 0 0 0-2.38 1.81A8.33 8.33 0 0 0 8.53 24a9.43 9.43 0 0 0-.44 1.68h1.37a11.33 11.33 0 0 0-.14 1.77 10.9 10.9 0 0 0 .25 2.34h-2a9.45 9.45 0 0 0 .48 2.05c.09.24.19.46.29.69h2.31a8.16 8.16 0 0 0 .82 1.11 7.17 7.17 0 0 0 8.3 1.78 7.12 7.12 0 0 0 2.38-1.78 7.52 7.52 0 0 0 .85-1.09h-1.36c.1-.23.2-.47.29-.72a9.94 9.94 0 0 0 .48-2h1.66a10.81 10.81 0 0 0 .26-2.39 10.62 10.62 0 0 0-.13-1.72h-1.37a10.08 10.08 0 0 0-.44-1.72ZM345.55 25.12V10.25a1.65 1.65 0 0 0-1.65-1.65h-.1a1.65 1.65 0 0 0-1.65 1.65v13.47a1.59 1.59 0 0 1-3.18 0v-3.78h-2.46v3.78a1.59 1.59 0 1 1-3.18 0v-3.78h-1.94v3.78a1.59 1.59 0 1 1-3.18 0v-8a1.66 1.66 0 0 0-1.67-1.66h-.06a1.66 1.66 0 0 0-1.67 1.66v10.01h1.37a10.58 10.58 0 0 0 1.14 4.11h-2.24a10.87 10.87 0 0 0 1.6 2.74h2.66a10.27 10.27 0 0 0 7.1 2.94h.08a10.33 10.33 0 0 0 7.23-2.94h-1a10.55 10.55 0 0 0 1.59-2.74h1.42a10.37 10.37 0 0 0 1.1-4.11h-1.37c.05-.22.06-.41.06-.61ZM81.74 17.88a7.46 7.46 0 0 0-2.74.52 7.3 7.3 0 0 0-2.27 1.46 7.53 7.53 0 0 0-1.62 2.24 8.1 8.1 0 0 0-.77 2.9h14.9a7.6 7.6 0 0 0-2.38-5.18 7.27 7.27 0 0 0-5.12-1.94ZM282.72 17.88a7.46 7.46 0 0 0-2.77.52 7.3 7.3 0 0 0-2.27 1.46 7.53 7.53 0 0 0-1.62 2.24 8.1 8.1 0 0 0-.74 2.91h14.9a7.6 7.6 0 0 0-2.38-5.18 7.27 7.27 0 0 0-5.12-1.95ZM221.12 24a8.28 8.28 0 0 0-1.59-2.73 7 7 0 0 0-5.34-2.41 6.74 6.74 0 0 0-3 .65 7.49 7.49 0 0 0-2.38 1.81 8.51 8.51 0 0 0-1.55 2.68 9.41 9.41 0 0 0-.43 1.68h1.37a10.24 10.24 0 0 0-.14 1.77 10.9 10.9 0 0 0 .25 2.34h-2a8.9 8.9 0 0 0 .48 2.05c.08.24.18.46.28.69h2.32a8.09 8.09 0 0 0 .81 1.11 7.12 7.12 0 0 0 2.38 1.78 7.09 7.09 0 0 0 8.3-1.78 7.52 7.52 0 0 0 .81-1.11h-1.34a7.76 7.76 0 0 0 .3-.72 9.93 9.93 0 0 0 .47-2h1.67a11.44 11.44 0 0 0 .26-2.39 10.6 10.6 0 0 0-.14-1.72h-1.37a9.24 9.24 0 0 0-.42-1.7ZM123 24.24a8.83 8.83 0 0 0-1.56-2.79 7.62 7.62 0 0 0-2.44-1.92 6.34 6.34 0 0 0-3-.71 6.71 6.71 0 0 0-4.41 1.61 10.65 10.65 0 0 0-3 4v1.3H110v4.11h-1.82v2.35c0 .13.1.26.15.39h2.31a6.38 6.38 0 0 0 .49.67 8 8 0 0 0 1.67 1.51 7.71 7.71 0 0 0 2 1 6.91 6.91 0 0 0 2.14.36 7.64 7.64 0 0 0 5.75-2.52 8.31 8.31 0 0 0 .77-1h-1.31c.12-.25.23-.51.33-.77a8.73 8.73 0 0 0 .48-2h1.66a9.53 9.53 0 0 0 .26-2.23 10.6 10.6 0 0 0-.17-1.88h-1.37a10.07 10.07 0 0 0-.34-1.48ZM254.44 32.16v-2.35h1.82V25.7h-1.37v-1.3a8.06 8.06 0 0 0-1.23-2.22 9.09 9.09 0 0 0-1.81-1.75 9.91 9.91 0 0 0-2.13-1.18 6.12 6.12 0 0 0-2.22-.43 6.51 6.51 0 0 0-3 .71 7.23 7.23 0 0 0-2.39 1.94 9.36 9.36 0 0 0-1.53 2.82 9.75 9.75 0 0 0-.37 1.41h1.37a10.69 10.69 0 0 0-.18 1.88 10.09 10.09 0 0 0 .26 2.23h-2a8.31 8.31 0 0 0 .51 2 7.8 7.8 0 0 0 .31.72h2.35a9.28 9.28 0 0 0 .81 1.06 7.37 7.37 0 0 0 2.49 1.8 7.67 7.67 0 0 0 3.2.66 6.81 6.81 0 0 0 2.14-.36 7.27 7.27 0 0 0 2-1 9 9 0 0 0 1.67-1.53 6.62 6.62 0 0 0 .46-.62h-1.33c.06-.12.12-.25.17-.38Z"/><path class="cls-3" d="M31.67 29.81a16.53 16.53 0 0 0 .17-2.34 17.18 17.18 0 0 0-.1-1.77h-1.37a15.88 15.88 0 0 0-.94-3.93 14.19 14.19 0 0 0-7.7-8 15.45 15.45 0 0 0-6.27-1.21 15.63 15.63 0 0 0-6.3 1.21 14.12 14.12 0 0 0-7.73 8 15.88 15.88 0 0 0-.94 3.93h1.37a17.18 17.18 0 0 0-.1 1.77 16.53 16.53 0 0 0 .17 2.34H0a15.73 15.73 0 0 0 .49 2.74H2.6c.06.19.13.38.2.56a14.45 14.45 0 0 0 3 4.74 14.16 14.16 0 0 0 4.74 3.26 15.8 15.8 0 0 0 6.3 1.21 15.87 15.87 0 0 0 6.3-1.21 13.84 13.84 0 0 0 4.71-3.26 14.7 14.7 0 0 0 3-4.74c.07-.18.14-.37.2-.56h-1.59a15.73 15.73 0 0 0 .54-2.74ZM23 32.55a7.52 7.52 0 0 1-.81 1.11 7.12 7.12 0 0 1-2.38 1.78 7.09 7.09 0 0 1-8.3-1.78 8.16 8.16 0 0 1-.82-1.11H8.36c-.1-.23-.2-.45-.29-.69a9.45 9.45 0 0 1-.48-2.05h2a10.9 10.9 0 0 1-.25-2.34 11.33 11.33 0 0 1 .14-1.77H8.09a9.43 9.43 0 0 1 .44-1.7 8.33 8.33 0 0 1 1.59-2.74 7.38 7.38 0 0 1 2.38-1.81 6.71 6.71 0 0 1 3-.65 7 7 0 0 1 3 .63 7.12 7.12 0 0 1 2.38 1.78A8.64 8.64 0 0 1 22.39 24a10.08 10.08 0 0 1 .44 1.74h1.37a10.62 10.62 0 0 1 .13 1.72 10.81 10.81 0 0 1-.26 2.39h-1.66a9.94 9.94 0 0 1-.48 2c-.09.25-.19.49-.29.72ZM63.44 29.81V25.7h-1.37v-1.84a24.43 24.43 0 0 0-.35-4.11 10.89 10.89 0 0 0-1.29-3.62 7.06 7.06 0 0 0-2.63-2.57 8.61 8.61 0 0 0-4.38-1 14.75 14.75 0 0 0-6.79 1.53A10.93 10.93 0 0 0 42 18.38v-5.32h-6.6V25.7h1.37v4.11h-1.83v2.74h1.83v9.22h7.34v-9.22h-1.83v-2.74h1.83V25.7h-1.37V25a7.27 7.27 0 0 1 1.2-2.41 10 10 0 0 1 1.84-1.89 8.34 8.34 0 0 1 2.16-1.24 6.37 6.37 0 0 1 2.25-.46 4 4 0 0 1 3.34 1.59 8.42 8.42 0 0 1 1.2 5h1.37v4.11h-1.82v2.74h1.82v9.22h7.34v-9.11h-1.82v-2.74ZM98.09 25.7h-1.37a15.68 15.68 0 0 0-.93-4 13.73 13.73 0 0 0-3-4.71 14.46 14.46 0 0 0-4.71-3.23 15.41 15.41 0 0 0-6.27-1.21 15.84 15.84 0 0 0-6.33 1.21A14.27 14.27 0 0 0 70.73 17a13.82 13.82 0 0 0-3 4.76 15.44 15.44 0 0 0-.94 3.9h1.37a16.65 16.65 0 0 0-.16 1.92 16.37 16.37 0 0 0 .16 2.23h-1.89a14.84 14.84 0 0 0 .49 2.74h2.1c.08.22.16.45.25.67a14.24 14.24 0 0 0 3 4.71 14.52 14.52 0 0 0 4.77 3.21 16 16 0 0 0 6.24 1.18 15.75 15.75 0 0 0 8.3-2.11 12.85 12.85 0 0 0 5.07-5.4l-6.3-1.75a5.65 5.65 0 0 1-2.66 2.82A8.45 8.45 0 0 1 83.44 37a7.69 7.69 0 0 1-2.74-.5 7.29 7.29 0 0 1-2.36-1.5 7.51 7.51 0 0 1-1.7-2.25c0-.07-.06-.15-.1-.23h-2.17a9 9 0 0 1-.37-1.84h22.18a5.77 5.77 0 0 0 .13-.87H75.83 98a5.25 5.25 0 0 0 .13-1.09v-1.37c0-.47.01-1.12-.04-1.65Zm-23-3.6a7.53 7.53 0 0 1 1.62-2.24A7.3 7.3 0 0 1 79 18.4a7.46 7.46 0 0 1 2.77-.52 7.27 7.27 0 0 1 5.12 1.95A7.6 7.6 0 0 1 89.24 25h-14.9a8.1 8.1 0 0 1 .74-2.9ZM132.27 29.81a18.86 18.86 0 0 0 .14-2.28q0-.93-.09-1.83H131a18.54 18.54 0 0 0-.81-3.93 14.84 14.84 0 0 0-2.63-4.77 12.75 12.75 0 0 0-4-3.23 10.71 10.71 0 0 0-5.09-1.21 11.47 11.47 0 0 0-5.81 1.44 11.09 11.09 0 0 0-4 4.08V1.78h-7.35V25.7h1.37v4.11h-1.82v2.74h1.82v9.22h6.41v-5a10.84 10.84 0 0 0 4.06 4.06 11.6 11.6 0 0 0 5.85 1.49 12.48 12.48 0 0 0 5.31-1.15 13.21 13.21 0 0 0 4.26-3.17 14.7 14.7 0 0 0 2.83-4.69c.09-.26.18-.52.26-.78h-1.57a16.31 16.31 0 0 0 .44-2.74Zm-8.79 2.74a8.31 8.31 0 0 1-.77 1 7.64 7.64 0 0 1-5.71 2.52 6.91 6.91 0 0 1-2.14-.36 7.71 7.71 0 0 1-2-1 8 8 0 0 1-1.67-1.51 6.38 6.38 0 0 1-.49-.67h-2.31c0-.13-.11-.26-.15-.39v-2.33H110V25.7h-1.36v-1.3a10.65 10.65 0 0 1 3-4 6.71 6.71 0 0 1 4.36-1.58 6.34 6.34 0 0 1 3 .71 7.62 7.62 0 0 1 2.39 1.92 8.83 8.83 0 0 1 1.61 2.79 10.07 10.07 0 0 1 .37 1.46h1.37a10.6 10.6 0 0 1 .17 1.88 9.53 9.53 0 0 1-.26 2.23H123a8.73 8.73 0 0 1-.48 2c-.1.26-.21.52-.33.77ZM144.73 29.81V25.7h-1.37v-7.17h-7.34v7.17h1.37v4.11h-1.82v2.74h1.82v9.22h7.34v-9.22h-1.82v-2.74h1.82zM167.08 34.48c-.44.19-1 .4-1.75.66a6.65 6.65 0 0 1-2.25.38 3 3 0 0 1-1.94-.63 2.61 2.61 0 0 1-.8-2.16v-.18h-1.82v-2.74h1.82V25.7H159v-7h6v-5.64h-6V3.75h-7.35v9.31h-3.78v5.65h3.78v7H153v4.11h-1.82v2.74H153v2.64a7.78 7.78 0 0 0 .61 3.26 6 6 0 0 0 1.61 2.19 6.36 6.36 0 0 0 2.36 1.24 10.59 10.59 0 0 0 2.87.38 15.22 15.22 0 0 0 4.5-.66 30.66 30.66 0 0 0 3.61-1.31ZM143.42 5.3h-7.57v7.76h7.76V5.3h-.19z"/><path class="cls-4" d="M190.91 32.67a5.48 5.48 0 0 1-2.33 2.41 7 7 0 0 1-3.64 1 6.85 6.85 0 0 1-2.9-.63 7.06 7.06 0 0 1-2.39-1.78 7.52 7.52 0 0 1-.81-1.11h-2.32c-.11-.23-.21-.47-.31-.72a9.33 9.33 0 0 1-.5-2h2a10.24 10.24 0 0 1-.27-2.39 11.91 11.91 0 0 1 .12-1.72h-1.36a9.19 9.19 0 0 1 .44-1.79 8 8 0 0 1 1.59-2.71 7.21 7.21 0 0 1 2.38-1.75 7.29 7.29 0 0 1 6.36.21 6.47 6.47 0 0 1 2.46 2.44l7.18-2.19a13 13 0 0 0-5-5.31 15.09 15.09 0 0 0-8-2 15.63 15.63 0 0 0-6.3 1.21 14.52 14.52 0 0 0-4.75 3.16 13.86 13.86 0 0 0-3 4.71 14.92 14.92 0 0 0-1 4H170a16.09 16.09 0 0 0-.09 1.72 15.83 15.83 0 0 0 .18 2.39h-1.94a15.94 15.94 0 0 0 .51 2.74h2.12c.06.18.12.36.19.54a14.73 14.73 0 0 0 3 4.76 14.49 14.49 0 0 0 4.77 3.26 15.8 15.8 0 0 0 6.3 1.21 15.28 15.28 0 0 0 8.16-2.09 12 12 0 0 0 4.88-5.36ZM230.4 29.81a16.53 16.53 0 0 0 .17-2.34 14.76 14.76 0 0 0-.1-1.77h-1.37a15 15 0 0 0-.94-3.93 14.11 14.11 0 0 0-7.7-8 15.41 15.41 0 0 0-6.27-1.21 15.63 15.63 0 0 0-6.3 1.21 14.06 14.06 0 0 0-7.72 8 15.46 15.46 0 0 0-.95 3.93h1.37a17.19 17.19 0 0 0-.09 1.77 16.53 16.53 0 0 0 .17 2.34h-1.94a15.74 15.74 0 0 0 .5 2.74h2.1l.21.56a14.42 14.42 0 0 0 3 4.74 14.16 14.16 0 0 0 4.74 3.26 17 17 0 0 0 12.6 0 13.84 13.84 0 0 0 4.71-3.26 14.53 14.53 0 0 0 3-4.74c.07-.18.14-.37.2-.56h-1.54a14.84 14.84 0 0 0 .49-2.74Zm-8.69 2.74a7.52 7.52 0 0 1-.81 1.11 7.17 7.17 0 0 1-8.3 1.78 7.12 7.12 0 0 1-2.38-1.78 8.09 8.09 0 0 1-.81-1.11h-2.32c-.1-.23-.2-.45-.28-.69a8.9 8.9 0 0 1-.48-2.05h2a10.9 10.9 0 0 1-.25-2.34 10.24 10.24 0 0 1 .14-1.77h-1.37a9.41 9.41 0 0 1 .43-1.68 8.51 8.51 0 0 1 1.59-2.74 7.49 7.49 0 0 1 2.38-1.81 6.74 6.74 0 0 1 3-.65 7 7 0 0 1 5.34 2.41 8.28 8.28 0 0 1 1.53 2.77 9.24 9.24 0 0 1 .44 1.74h1.37a10.6 10.6 0 0 1 .14 1.72 11.44 11.44 0 0 1-.26 2.39h-1.67a9.93 9.93 0 0 1-.47 2 7.76 7.76 0 0 1-.3.72ZM264 35a2.7 2.7 0 0 1-.39-1.65v-.78h-1.82v-2.76h1.82V25.7h-1.37V1.78h-7.34V18.1a11.18 11.18 0 0 0-4-4 10.91 10.91 0 0 0-5.72-1.53 11.51 11.51 0 0 0-5.15 1.15A12.32 12.32 0 0 0 236 16.9a15.26 15.26 0 0 0-2.65 4.71 16.54 16.54 0 0 0-.88 4.09h1.37c-.05.56-.08 1.13-.08 1.72a17.13 17.13 0 0 0 .16 2.39H232a17.6 17.6 0 0 0 .45 2.74h2.09c.07.23.15.47.24.7a15 15 0 0 0 2.8 4.75 13 13 0 0 0 9.81 4.33 12.26 12.26 0 0 0 5.67-1.4 10.44 10.44 0 0 0 4.3-4.14l.16 1.81a3.64 3.64 0 0 0 1.48 2.57 5.11 5.11 0 0 0 3.23 1 17.1 17.1 0 0 0 3.12-.38v-6.27A1.69 1.69 0 0 1 264 35Zm-8.85-1.81a9 9 0 0 1-1.67 1.53 7.27 7.27 0 0 1-2 1 6.81 6.81 0 0 1-2.14.36 7.67 7.67 0 0 1-3.2-.66 7.37 7.37 0 0 1-2.49-1.8 9.28 9.28 0 0 1-.81-1.06h-2.35a7.8 7.8 0 0 1-.31-.72 8.31 8.31 0 0 1-.51-2h2a10.09 10.09 0 0 1-.26-2.23 10.69 10.69 0 0 1 .18-1.88h-1.37a9.75 9.75 0 0 1 .37-1.41 9.36 9.36 0 0 1 1.53-2.82 7.23 7.23 0 0 1 2.39-1.94 6.51 6.51 0 0 1 3-.71 6.12 6.12 0 0 1 2.22.43 9.91 9.91 0 0 1 2.13 1.18 9.09 9.09 0 0 1 1.81 1.75 8.06 8.06 0 0 1 1.23 2.22v1.3h1.37v4.11h-1.82v2.35c-.05.13-.11.26-.17.39h1.33a6.62 6.62 0 0 1-.47.59ZM299.07 25.7h-1.37a15.68 15.68 0 0 0-.93-4 13.73 13.73 0 0 0-3-4.71 14.46 14.46 0 0 0-4.71-3.23 15.45 15.45 0 0 0-6.27-1.21 15.84 15.84 0 0 0-6.33 1.21 14.27 14.27 0 0 0-4.75 3.24 13.82 13.82 0 0 0-3 4.76 15.44 15.44 0 0 0-.94 3.9h1.37a16.65 16.65 0 0 0-.11 1.88 16.37 16.37 0 0 0 .16 2.23h-1.93a14.84 14.84 0 0 0 .49 2.74h2.1c.08.22.16.45.25.67a14.24 14.24 0 0 0 3 4.71 14.52 14.52 0 0 0 4.77 3.21 16 16 0 0 0 6.24 1.18 15.75 15.75 0 0 0 8.3-2.11 12.85 12.85 0 0 0 5.07-5.4l-6.3-1.75a5.65 5.65 0 0 1-2.66 2.82 8.45 8.45 0 0 1-4.1 1.16 7.69 7.69 0 0 1-2.74-.5 7.29 7.29 0 0 1-2.36-1.5 7.51 7.51 0 0 1-1.7-2.25c0-.07-.06-.15-.1-.23h-2.17a9 9 0 0 1-.37-1.87h22.18a5.77 5.77 0 0 0 .13-.87h-20.48H299a5.25 5.25 0 0 0 .13-1.09v-1.37c0-.47-.01-1.09-.06-1.62Zm-23-3.6a7.53 7.53 0 0 1 1.62-2.24A7.3 7.3 0 0 1 280 18.4a7.46 7.46 0 0 1 2.77-.52 7.27 7.27 0 0 1 5.12 1.95 7.6 7.6 0 0 1 2.33 5.17h-14.9a8.1 8.1 0 0 1 .74-2.9Z"/><path class="cls-3" d="M364.26 18.9c-2.28 0-2.7-1.37-2.7-3.62l.14-7.39c0-6.69-3-7.89-6.8-7.89h-1.23v5.31h.59c1.69 0 2.47.66 2.47 3.34l-.14 6.69c0 4.27 1.14 6 3.42 6.84a4.39 4.39 0 0 0-3.09 3.52h1.37A12.91 12.91 0 0 0 358 29v.78h-1.84v.13l.06 2.61H358l.06 2.78c0 2.63-.77 3.4-2.6 3.4H355v5.4h1.09c3.75 0 6.94-1.32 6.94-8.22l-.03-3.33h-1.85l-.05-2.74h1.9v-1c0-1.43.16-2.51.87-3.11h-1.37a3 3 0 0 1 2-.56h.74V18.9Z"/><path class="cls-4" d="M349.26 29.81a13.35 13.35 0 0 0 .82-4.11h-1.37V10.25a4.83 4.83 0 0 0-4.83-4.82h-.1a4.83 4.83 0 0 0-4.78 4.82v6.51h-7.58v-1a4.85 4.85 0 0 0-4.85-4.84h-.06a4.85 4.85 0 0 0-4.85 4.84v9.97H323a14 14 0 0 0 .86 4.11h-2.13a13.23 13.23 0 0 0 1.15 2.74h2.38a13.54 13.54 0 0 0 11.17 6.12h.1a13.54 13.54 0 0 0 11.32-6.12h-1.25a13.74 13.74 0 0 0 1.13-2.74Zm-4.88 0a10.55 10.55 0 0 1-1.59 2.74h1a10.33 10.33 0 0 1-7.23 2.94h-.08a10.27 10.27 0 0 1-7.1-2.94h-2.66a10.87 10.87 0 0 1-1.6-2.74h2.24a10.58 10.58 0 0 1-1.14-4.11h-1.37v-9.97a1.66 1.66 0 0 1 1.67-1.66h.06a1.66 1.66 0 0 1 1.67 1.66v8a1.59 1.59 0 1 0 3.18 0v-3.79h1.94v3.78a1.59 1.59 0 1 0 3.18 0v-3.78H339v3.78a1.59 1.59 0 0 0 3.18 0V10.25a1.65 1.65 0 0 1 1.62-1.65h.1a1.65 1.65 0 0 1 1.65 1.65V25.7h1.37a10.37 10.37 0 0 1-1.1 4.11Z"/><path class="cls-3" d="M317.47 38.78c-1.69 0-2.46-.66-2.46-3.34l.06-2.89h-1.81l.05-2.74h1.81v-1a13 13 0 0 0-.26-3.06h-1.37a4.63 4.63 0 0 0-3.21-3.79c2.24-.6 3.52-2.63 3.47-6.85l-.13-6.24c0-2.69.77-3.45 2.55-3.45h.46V0h-1c-3.74 0-7 1.31-7 8.22l.19 7.06c0 2.36-.46 3.67-2.83 3.67h-.73v6.25h.86a2.69 2.69 0 0 1 1.77.5h1.37c.73.59.93 1.67.93 3.11v1h-1.8l-.07 2.74h1.8l-.12 3.66c0 6.68 3.06 7.89 6.85 7.89H318v-5.32Z"/><text transform="translate(0 64.47)" style="font-size:13.9px;font-family:Raleway-Regular,Raleway;letter-spacing:.06em;fill:#fff">P<tspan class="cls-6" x="8.37" y="0">A</tspan><tspan class="cls-7" x="17.9" y="0">R</tspan><tspan x="27.17" y="0" style="letter-spacing:.07em">A</tspan><tspan class="cls-9" x="36.29" y="0" xml:space="preserve"> PROG</tspan><tspan class="cls-7" x="79.87" y="0">R</tspan><tspan class="cls-6" x="89.14" y="0">AMADOR</tspan><tspan class="cls-7" x="149.85" y="0">E</tspan><tspan class="cls-9" x="158.58" y="0">S</tspan><tspan x="167.27" y="0" style="letter-spacing:.05em"> </tspan><tspan x="171.51" y="0" style="font-family:Raleway-BoldItalic,Raleway;font-weight:700;font-style:italic;letter-spacing:.2em;fill:#fd0143">SEM LIMITES</tspan></text></g></svg>