<svg data-name="Camada 1" xmlns="http://www.w3.org/2000/svg" viewBox="0 0 29.1 34"><path d="M28.26 24.94a13.94 13.94 0 0 0 .84-4.2h-1.4V4.94A4.94 4.94 0 0 0 22.77 0h-.1a4.94 4.94 0 0 0-4.93 4.94v6.65H10v-1.05a5 5 0 0 0-5-4.95 5 5 0 0 0-5 4.95v10.21h1.4a14 14 0 0 0 .88 4.2H.12a13.83 13.83 0 0 0 1.18 2.8h2.43A13.84 13.84 0 0 0 15.15 34h.11a13.86 13.86 0 0 0 11.58-6.26h-1.3a13.74 13.74 0 0 0 1.15-2.8Zm-5 0a10.86 10.86 0 0 1-1.63 2.8h1a10.57 10.57 0 0 1-7.39 3h-.08a10.49 10.49 0 0 1-7.26-3H5.19a11.19 11.19 0 0 1-1.64-2.8h2.3a10.7 10.7 0 0 1-1.17-4.2h-1.4v-10.2A1.7 1.7 0 0 1 5 8.84a1.71 1.71 0 0 1 1.71 1.7v8.17a1.63 1.63 0 1 0 3.25 0v-3.87h2v3.87a1.63 1.63 0 1 0 3.25 0v-3.87h2.53v3.87a1.63 1.63 0 1 0 3.25 0V4.94a1.69 1.69 0 0 1 1.68-1.69h.1a1.69 1.69 0 0 1 1.69 1.69V20.74h1.4a10.67 10.67 0 0 1-1.14 4.2Z" style="fill:#ff003a"/></svg>